<?xml version="1.0" encoding="UTF-8" standalone="no"?>
<!DOCTYPE svg PUBLIC "-//W3C//DTD SVG 1.1//EN" "http://www.w3.org/Graphics/SVG/1.1/DTD/svg11.dtd">
<svg width="100%" height="100%" viewBox="0 0 100 100" version="1.1" xmlns="http://www.w3.org/2000/svg" xmlns:xlink="http://www.w3.org/1999/xlink" xml:space="preserve" xmlns:serif="http://www.serif.com/" style="fill-rule:evenodd;clip-rule:evenodd;stroke-linejoin:round;stroke-miterlimit:1.41421;">
    <g transform="matrix(2.27273,0,0,2.27273,-2971.64,-1228.83)">
        <path d="M1329.66,540.684L1329.81,540.685L1329.95,540.688L1330.09,540.691L1330.23,540.695L1330.37,540.7L1330.51,540.706L1330.65,540.712L1330.79,540.72L1330.93,540.728L1331.07,540.738L1331.21,540.748L1331.35,540.759L1331.49,540.771L1331.63,540.784L1331.77,540.797L1331.91,540.812L1332.05,540.827L1332.18,540.843L1332.32,540.861L1332.46,540.879L1332.6,540.897L1332.73,540.917L1332.87,540.937L1333.01,540.959L1333.14,540.981L1333.28,541.004L1333.41,541.028L1333.55,541.052L1333.68,541.078L1333.82,541.104L1333.95,541.131L1334.09,541.159L1334.22,541.188L1334.35,541.217L1334.49,541.247L1334.62,541.279L1334.75,541.311L1334.88,541.343L1335.02,541.377L1335.15,541.411L1335.28,541.446L1335.41,541.482L1335.54,541.519L1335.67,541.556L1335.8,541.595L1335.93,541.634L1336.06,541.673L1336.19,541.714L1336.32,541.755L1336.45,541.798L1336.57,541.84L1336.7,541.884L1336.83,541.928L1336.96,541.974L1337.08,542.02L1337.21,542.066L1337.34,542.114L1337.46,542.162L1337.59,542.211L1337.71,542.26L1337.83,542.311L1337.96,542.362L1338.08,542.414L1338.2,542.466L1338.33,542.52L1338.45,542.574L1338.57,542.628L1338.69,542.684L1338.82,542.74L1338.94,542.797L1339.06,542.855L1339.18,542.913L1339.3,542.972L1339.41,543.032L1339.53,543.092L1339.65,543.153L1339.77,543.215L1339.89,543.277L1340,543.341L1340.12,543.404L1340.24,543.469L1340.35,543.534L1340.47,543.6L1340.58,543.667L1340.7,543.734L1340.81,543.802L1340.93,543.871L1341.04,543.94L1341.15,544.01L1341.26,544.08L1341.38,544.152L1341.49,544.224L1341.6,544.296L1341.71,544.369L1341.82,544.443L1341.93,544.518L1342.04,544.593L1342.14,544.668L1342.25,544.745L1342.36,544.822L1342.47,544.9L1342.58,544.978L1342.68,545.057L1342.79,545.136L1342.89,545.216L1343,545.297L1343.1,545.378L1343.2,545.46L1343.31,545.543L1343.41,545.626L1343.51,545.71L1343.61,545.794L1343.71,545.879L1343.82,545.965L1343.92,546.051L1344.02,546.138L1344.11,546.225L1344.21,546.313L1344.31,546.402L1344.41,546.491L1344.51,546.58L1344.6,546.671L1344.7,546.762L1344.79,546.853L1344.89,546.945L1344.98,547.037L1345.08,547.13L1345.17,547.224L1345.26,547.318L1345.35,547.413L1345.44,547.508L1345.54,547.604L1345.62,547.7L1345.71,547.797L1345.8,547.895L1345.89,547.993L1345.98,548.091L1346.07,548.19L1346.15,548.29L1346.24,548.39L1346.33,548.49L1346.41,548.591L1346.5,548.693L1346.58,548.795L1346.66,548.898L1346.75,549.001L1346.83,549.105L1346.91,549.209L1346.99,549.313L1347.07,549.419L1347.15,549.524L1347.23,549.63L1347.31,549.737L1347.38,549.844L1347.46,549.952L1347.54,550.06L1347.61,550.168L1347.69,550.277L1347.76,550.387L1347.84,550.497L1347.91,550.607L1347.98,550.718L1348.05,550.83L1348.12,550.941L1348.19,551.054L1348.27,551.166L1348.34,551.28L1348.4,551.393L1348.47,551.507L1348.54,551.622L1348.61,551.737L1348.67,551.852L1348.74,551.968L1348.8,552.084L1348.87,552.201L1348.93,552.318L1348.99,552.435L1349.05,552.553L1349.11,552.672L1349.17,552.791L1349.23,552.91L1349.29,553.029L1349.35,553.149L1349.41,553.27L1349.46,553.391L1349.52,553.512L1349.58,553.633L1349.63,553.755L1349.69,553.878L1349.74,554.001L1349.79,554.124L1349.84,554.247L1349.89,554.371L1349.94,554.496L1350,554.62L1350.04,554.745L1350.09,554.871L1350.14,554.996L1350.19,555.123L1350.23,555.249L1350.28,555.376L1350.32,555.503L1350.37,555.631L1350.41,555.759L1350.45,555.887L1350.49,556.016L1350.53,556.145L1350.57,556.274L1350.61,556.404L1350.65,556.533L1350.69,556.664L1350.72,556.794L1350.76,556.925L1350.79,557.057L1350.83,557.188L1350.86,557.32L1350.89,557.452L1350.93,557.585L1350.96,557.718L1350.99,557.851L1351.02,557.984L1351.05,558.118L1351.07,558.252L1351.1,558.387L1351.13,558.521L1351.15,558.656L1351.18,558.791L1351.2,558.927L1351.22,559.063L1351.25,559.199L1351.27,559.335L1351.29,559.472L1351.31,559.609L1351.33,559.746L1351.35,559.883L1351.36,560.021L1351.38,560.159L1351.39,560.297L1351.41,560.436L1351.42,560.574L1351.43,560.713L1351.45,560.853L1351.46,560.992L1351.47,561.132L1351.48,561.272L1351.49,561.412L1351.49,561.552L1351.5,561.693L1351.51,561.834L1351.51,561.975L1351.51,562.116L1351.52,562.258L1351.52,562.4L1351.52,562.542L1351.52,562.684L1351.52,562.826L1351.52,562.968L1351.52,563.11L1351.51,563.251L1351.51,563.392L1351.51,563.534L1351.5,563.674L1351.49,563.815L1351.49,563.956L1351.48,564.096L1351.47,564.236L1351.46,564.375L1351.45,564.515L1351.43,564.654L1351.42,564.793L1351.41,564.932L1351.39,565.07L1351.38,565.208L1351.36,565.346L1351.35,565.484L1351.33,565.622L1351.31,565.759L1351.29,565.896L1351.27,566.032L1351.25,566.169L1351.22,566.305L1351.2,566.44L1351.18,566.576L1351.15,566.711L1351.13,566.846L1351.1,566.981L1351.07,567.115L1351.05,567.249L1351.02,567.383L1350.99,567.516L1350.96,567.65L1350.93,567.782L1350.89,567.915L1350.86,568.047L1350.83,568.179L1350.79,568.311L1350.76,568.442L1350.72,568.573L1350.69,568.704L1350.65,568.834L1350.61,568.964L1350.57,569.093L1350.53,569.223L1350.49,569.352L1350.45,569.48L1350.41,569.609L1350.37,569.737L1350.32,569.864L1350.28,569.991L1350.23,570.118L1350.19,570.245L1350.14,570.371L1350.09,570.497L1350.04,570.622L1350,570.747L1349.94,570.872L1349.89,570.996L1349.84,571.12L1349.79,571.244L1349.74,571.367L1349.69,571.49L1349.63,571.612L1349.58,571.734L1349.52,571.856L1349.46,571.977L1349.41,572.098L1349.35,572.218L1349.29,572.338L1349.23,572.458L1349.17,572.577L1349.11,572.696L1349.05,572.814L1348.99,572.932L1348.93,573.049L1348.87,573.167L1348.8,573.283L1348.74,573.4L1348.67,573.515L1348.61,573.631L1348.54,573.746L1348.47,573.86L1348.4,573.974L1348.34,574.088L1348.27,574.201L1348.19,574.314L1348.12,574.426L1348.05,574.538L1347.98,574.649L1347.91,574.76L1347.84,574.871L1347.76,574.981L1347.69,575.09L1347.61,575.199L1347.54,575.308L1347.46,575.416L1347.38,575.523L1347.31,575.63L1347.23,575.737L1347.15,575.843L1347.07,575.949L1346.99,576.054L1346.91,576.159L1346.83,576.263L1346.75,576.366L1346.66,576.47L1346.58,576.572L1346.5,576.674L1346.41,576.776L1346.33,576.877L1346.24,576.978L1346.15,577.078L1346.07,577.177L1345.98,577.276L1345.89,577.375L1345.8,577.473L1345.71,577.57L1345.62,577.667L1345.54,577.763L1345.44,577.859L1345.35,577.955L1345.26,578.049L1345.17,578.143L1345.08,578.237L1344.98,578.33L1344.89,578.423L1344.79,578.514L1344.7,578.606L1344.6,578.697L1344.51,578.787L1344.41,578.877L1344.31,578.966L1344.21,579.054L1344.11,579.142L1344.02,579.229L1343.92,579.316L1343.82,579.402L1343.71,579.488L1343.61,579.573L1343.51,579.657L1343.41,579.741L1343.31,579.824L1343.2,579.907L1343.1,579.989L1343,580.07L1342.89,580.151L1342.79,580.231L1342.68,580.311L1342.58,580.39L1342.47,580.468L1342.36,580.546L1342.25,580.623L1342.14,580.699L1342.04,580.775L1341.93,580.85L1341.82,580.924L1341.71,580.998L1341.6,581.071L1341.49,581.144L1341.38,581.216L1341.26,581.287L1341.15,581.358L1341.04,581.428L1340.93,581.497L1340.81,581.565L1340.7,581.633L1340.58,581.701L1340.47,581.767L1340.35,581.833L1340.24,581.898L1340.12,581.963L1340,582.027L1339.89,582.09L1339.77,582.152L1339.65,582.214L1339.53,582.275L1339.41,582.336L1339.3,582.396L1339.18,582.455L1339.06,582.513L1338.94,582.57L1338.82,582.627L1338.69,582.684L1338.57,582.739L1338.45,582.794L1338.33,582.848L1338.2,582.901L1338.08,582.954L1337.96,583.006L1337.83,583.057L1337.71,583.107L1337.59,583.157L1337.46,583.206L1337.34,583.254L1337.21,583.301L1337.08,583.348L1336.96,583.394L1336.83,583.439L1336.7,583.483L1336.57,583.527L1336.45,583.57L1336.32,583.612L1336.19,583.653L1336.06,583.694L1335.93,583.734L1335.8,583.773L1335.67,583.811L1335.54,583.849L1335.41,583.885L1335.28,583.921L1335.15,583.956L1335.02,583.991L1334.88,584.024L1334.75,584.057L1334.62,584.089L1334.49,584.12L1334.35,584.15L1334.22,584.18L1334.09,584.208L1333.95,584.236L1333.82,584.263L1333.68,584.29L1333.55,584.315L1333.41,584.34L1333.28,584.364L1333.14,584.387L1333.01,584.409L1332.87,584.43L1332.73,584.45L1332.6,584.47L1332.46,584.489L1332.32,584.507L1332.18,584.524L1332.05,584.54L1331.91,584.555L1331.77,584.57L1331.63,584.584L1331.49,584.596L1331.35,584.608L1331.21,584.619L1331.07,584.63L1330.93,584.639L1330.79,584.647L1330.65,584.655L1330.51,584.662L1330.37,584.668L1330.23,584.672L1330.09,584.677L1329.95,584.68L1329.81,584.682L1329.66,584.683L1329.52,584.684L1329.38,584.683L1329.24,584.682L1329.1,584.68L1328.95,584.677L1328.81,584.672L1328.67,584.668L1328.53,584.662L1328.39,584.655L1328.25,584.647L1328.11,584.639L1327.97,584.63L1327.83,584.619L1327.69,584.608L1327.55,584.596L1327.41,584.584L1327.27,584.57L1327.13,584.555L1327,584.54L1326.86,584.524L1326.72,584.507L1326.58,584.489L1326.45,584.47L1326.31,584.45L1326.17,584.43L1326.04,584.409L1325.9,584.387L1325.77,584.364L1325.63,584.34L1325.49,584.315L1325.36,584.29L1325.22,584.263L1325.09,584.236L1324.96,584.208L1324.82,584.18L1324.69,584.15L1324.56,584.12L1324.42,584.089L1324.29,584.057L1324.16,584.024L1324.03,583.991L1323.89,583.956L1323.76,583.921L1323.63,583.885L1323.5,583.849L1323.37,583.811L1323.24,583.773L1323.11,583.734L1322.98,583.694L1322.85,583.653L1322.73,583.612L1322.6,583.57L1322.47,583.527L1322.34,583.483L1322.21,583.439L1322.09,583.394L1321.96,583.348L1321.83,583.301L1321.71,583.254L1321.58,583.206L1321.46,583.157L1321.33,583.107L1321.21,583.057L1321.09,583.006L1320.96,582.954L1320.84,582.901L1320.72,582.848L1320.59,582.794L1320.47,582.739L1320.35,582.684L1320.23,582.627L1320.11,582.57L1319.99,582.513L1319.87,582.455L1319.75,582.396L1319.63,582.336L1319.51,582.275L1319.39,582.214L1319.27,582.152L1319.16,582.09L1319.04,582.027L1318.92,581.963L1318.81,581.898L1318.69,581.833L1318.58,581.767L1318.46,581.701L1318.35,581.633L1318.23,581.565L1318.12,581.497L1318,581.428L1317.89,581.358L1317.78,581.287L1317.67,581.216L1317.56,581.144L1317.44,581.071L1317.34,580.998L1317.23,580.924L1317.12,580.85L1317.01,580.775L1316.9,580.699L1316.79,580.623L1316.68,580.546L1316.58,580.468L1316.47,580.39L1316.36,580.311L1316.26,580.231L1316.15,580.151L1316.05,580.07L1315.94,579.989L1315.84,579.907L1315.74,579.824L1315.63,579.741L1315.53,579.657L1315.43,579.573L1315.33,579.488L1315.23,579.402L1315.13,579.316L1315.03,579.229L1314.93,579.142L1314.83,579.054L1314.73,578.966L1314.63,578.877L1314.54,578.787L1314.44,578.697L1314.35,578.606L1314.25,578.514L1314.16,578.423L1314.06,578.33L1313.97,578.237L1313.88,578.143L1313.78,578.049L1313.69,577.955L1313.6,577.859L1313.51,577.763L1313.42,577.667L1313.33,577.57L1313.24,577.473L1313.15,577.375L1313.06,577.276L1312.98,577.177L1312.89,577.078L1312.8,576.978L1312.72,576.877L1312.63,576.776L1312.55,576.674L1312.46,576.572L1312.38,576.47L1312.3,576.366L1312.22,576.263L1312.13,576.159L1312.05,576.054L1311.97,575.949L1311.89,575.843L1311.82,575.737L1311.74,575.63L1311.66,575.523L1311.58,575.416L1311.51,575.308L1311.43,575.199L1311.36,575.09L1311.28,574.981L1311.21,574.871L1311.13,574.76L1311.06,574.649L1310.99,574.538L1310.92,574.426L1310.85,574.314L1310.78,574.201L1310.71,574.088L1310.64,573.974L1310.57,573.86L1310.51,573.746L1310.44,573.631L1310.37,573.515L1310.31,573.4L1310.24,573.283L1310.18,573.167L1310.12,573.049L1310.05,572.932L1309.99,572.814L1309.93,572.696L1309.87,572.577L1309.81,572.458L1309.75,572.338L1309.69,572.218L1309.63,572.098L1309.58,571.977L1309.52,571.856L1309.47,571.734L1309.41,571.612L1309.36,571.49L1309.3,571.367L1309.25,571.244L1309.2,571.12L1309.15,570.996L1309.1,570.872L1309.05,570.747L1309,570.622L1308.95,570.497L1308.9,570.371L1308.86,570.245L1308.81,570.118L1308.77,569.991L1308.72,569.864L1308.68,569.737L1308.63,569.609L1308.59,569.48L1308.55,569.352L1308.51,569.223L1308.47,569.093L1308.43,568.964L1308.39,568.834L1308.36,568.704L1308.32,568.573L1308.28,568.442L1308.25,568.311L1308.21,568.179L1308.18,568.047L1308.15,567.915L1308.12,567.782L1308.09,567.65L1308.06,567.516L1308.03,567.383L1308,567.249L1307.97,567.115L1307.94,566.981L1307.92,566.846L1307.89,566.711L1307.87,566.576L1307.84,566.44L1307.82,566.305L1307.8,566.169L1307.78,566.032L1307.76,565.896L1307.74,565.759L1307.72,565.622L1307.7,565.484L1307.68,565.346L1307.66,565.208L1307.65,565.07L1307.63,564.932L1307.62,564.793L1307.61,564.654L1307.6,564.515L1307.59,564.375L1307.58,564.236L1307.57,564.096L1307.56,563.956L1307.55,563.815L1307.54,563.674L1307.54,563.534L1307.53,563.392L1307.53,563.251L1307.53,563.11L1307.52,562.968L1307.52,562.826L1307.52,562.684L1307.52,562.542L1307.52,562.4L1307.53,562.258L1307.53,562.116L1307.53,561.975L1307.54,561.834L1307.54,561.693L1307.55,561.552L1307.56,561.412L1307.57,561.272L1307.58,561.132L1307.59,560.992L1307.6,560.853L1307.61,560.713L1307.62,560.574L1307.63,560.436L1307.65,560.297L1307.66,560.159L1307.68,560.021L1307.7,559.883L1307.72,559.746L1307.74,559.609L1307.76,559.472L1307.78,559.335L1307.8,559.199L1307.82,559.063L1307.84,558.927L1307.87,558.791L1307.89,558.656L1307.92,558.521L1307.94,558.387L1307.97,558.252L1308,558.118L1308.03,557.984L1308.06,557.851L1308.09,557.718L1308.12,557.585L1308.15,557.452L1308.18,557.32L1308.21,557.188L1308.25,557.057L1308.28,556.925L1308.32,556.794L1308.36,556.664L1308.39,556.533L1308.43,556.404L1308.47,556.274L1308.51,556.145L1308.55,556.016L1308.59,555.887L1308.63,555.759L1308.68,555.631L1308.72,555.503L1308.77,555.376L1308.81,555.249L1308.86,555.123L1308.9,554.996L1308.95,554.871L1309,554.745L1309.05,554.62L1309.1,554.496L1309.15,554.371L1309.2,554.247L1309.25,554.124L1309.3,554.001L1309.36,553.878L1309.41,553.755L1309.47,553.633L1309.52,553.512L1309.58,553.391L1309.63,553.27L1309.69,553.149L1309.75,553.029L1309.81,552.91L1309.87,552.791L1309.93,552.672L1309.99,552.553L1310.05,552.435L1310.12,552.318L1310.18,552.201L1310.24,552.084L1310.31,551.968L1310.37,551.852L1310.44,551.737L1310.51,551.622L1310.57,551.507L1310.64,551.393L1310.71,551.28L1310.78,551.166L1310.85,551.054L1310.92,550.941L1310.99,550.83L1311.06,550.718L1311.13,550.607L1311.21,550.497L1311.28,550.387L1311.36,550.277L1311.43,550.168L1311.51,550.06L1311.58,549.952L1311.66,549.844L1311.74,549.737L1311.82,549.63L1311.89,549.524L1311.97,549.419L1312.05,549.313L1312.13,549.209L1312.22,549.105L1312.3,549.001L1312.38,548.898L1312.46,548.795L1312.55,548.693L1312.63,548.591L1312.72,548.49L1312.8,548.39L1312.89,548.29L1312.98,548.19L1313.06,548.091L1313.15,547.993L1313.24,547.895L1313.33,547.797L1313.42,547.7L1313.51,547.604L1313.6,547.508L1313.69,547.413L1313.78,547.318L1313.88,547.224L1313.97,547.13L1314.06,547.037L1314.16,546.945L1314.25,546.853L1314.35,546.762L1314.44,546.671L1314.54,546.58L1314.63,546.491L1314.73,546.402L1314.83,546.313L1314.93,546.225L1315.03,546.138L1315.13,546.051L1315.23,545.965L1315.33,545.879L1315.43,545.794L1315.53,545.71L1315.63,545.626L1315.74,545.543L1315.84,545.46L1315.94,545.378L1316.05,545.297L1316.15,545.216L1316.26,545.136L1316.36,545.057L1316.47,544.978L1316.58,544.9L1316.68,544.822L1316.79,544.745L1316.9,544.668L1317.01,544.593L1317.12,544.518L1317.23,544.443L1317.34,544.369L1317.44,544.296L1317.56,544.224L1317.67,544.152L1317.78,544.08L1317.89,544.01L1318,543.94L1318.12,543.871L1318.23,543.802L1318.35,543.734L1318.46,543.667L1318.58,543.6L1318.69,543.534L1318.81,543.469L1318.92,543.404L1319.04,543.341L1319.16,543.277L1319.27,543.215L1319.39,543.153L1319.51,543.092L1319.63,543.032L1319.75,542.972L1319.87,542.913L1319.99,542.855L1320.11,542.797L1320.23,542.74L1320.35,542.684L1320.47,542.628L1320.59,542.574L1320.72,542.52L1320.84,542.466L1320.96,542.414L1321.09,542.362L1321.21,542.311L1321.33,542.26L1321.46,542.211L1321.58,542.162L1321.71,542.114L1321.83,542.066L1321.96,542.02L1322.09,541.974L1322.21,541.928L1322.34,541.884L1322.47,541.84L1322.6,541.798L1322.73,541.755L1322.85,541.714L1322.98,541.673L1323.11,541.634L1323.24,541.595L1323.37,541.556L1323.5,541.519L1323.63,541.482L1323.76,541.446L1323.89,541.411L1324.03,541.377L1324.16,541.343L1324.29,541.311L1324.42,541.279L1324.56,541.247L1324.69,541.217L1324.82,541.188L1324.96,541.159L1325.09,541.131L1325.22,541.104L1325.36,541.078L1325.49,541.052L1325.63,541.028L1325.77,541.004L1325.9,540.981L1326.04,540.959L1326.17,540.937L1326.31,540.917L1326.45,540.897L1326.58,540.879L1326.72,540.861L1326.86,540.843L1327,540.827L1327.13,540.812L1327.27,540.797L1327.41,540.784L1327.55,540.771L1327.69,540.759L1327.83,540.748L1327.97,540.738L1328.11,540.728L1328.25,540.72L1328.39,540.712L1328.53,540.706L1328.67,540.7L1328.81,540.695L1328.95,540.691L1329.1,540.688L1329.24,540.685L1329.38,540.684L1329.52,540.684L1329.66,540.684ZM1329.4,544.351L1329.28,544.352L1329.16,544.354L1329.05,544.356L1328.93,544.36L1328.81,544.364L1328.69,544.369L1328.58,544.374L1328.46,544.381L1328.34,544.388L1328.23,544.395L1328.11,544.404L1327.99,544.413L1327.88,544.423L1327.76,544.434L1327.64,544.445L1327.53,544.457L1327.41,544.47L1327.3,544.484L1327.18,544.498L1327.07,544.513L1326.95,544.529L1326.84,544.545L1326.73,544.562L1326.61,544.58L1326.5,544.598L1326.39,544.617L1326.28,544.637L1326.16,544.657L1326.05,544.679L1325.94,544.701L1325.83,544.723L1325.71,544.746L1325.6,544.77L1325.49,544.795L1325.38,544.82L1325.27,544.846L1325.16,544.872L1325.05,544.9L1324.94,544.928L1324.83,544.956L1324.72,544.985L1324.61,545.015L1324.5,545.046L1324.4,545.077L1324.29,545.109L1324.18,545.141L1324.07,545.174L1323.96,545.208L1323.86,545.243L1323.75,545.278L1323.64,545.313L1323.54,545.35L1323.43,545.387L1323.33,545.424L1323.22,545.462L1323.12,545.501L1323.01,545.541L1322.91,545.581L1322.8,545.621L1322.7,545.663L1322.6,545.705L1322.49,545.747L1322.39,545.79L1322.29,545.834L1322.19,545.879L1322.08,545.923L1321.98,545.969L1321.88,546.015L1321.78,546.062L1321.68,546.109L1321.58,546.157L1321.48,546.206L1321.38,546.255L1321.28,546.305L1321.18,546.355L1321.08,546.406L1320.99,546.457L1320.89,546.51L1320.79,546.562L1320.69,546.615L1320.6,546.669L1320.5,546.724L1320.4,546.778L1320.31,546.834L1320.21,546.89L1320.12,546.947L1320.02,547.004L1319.93,547.062L1319.83,547.12L1319.74,547.179L1319.65,547.238L1319.55,547.298L1319.46,547.358L1319.37,547.419L1319.28,547.481L1319.19,547.543L1319.1,547.606L1319.01,547.669L1318.91,547.733L1318.83,547.797L1318.74,547.862L1318.65,547.927L1318.56,547.993L1318.47,548.059L1318.38,548.126L1318.3,548.193L1318.21,548.261L1318.12,548.33L1318.04,548.399L1317.95,548.468L1317.87,548.538L1317.78,548.608L1317.7,548.679L1317.61,548.751L1317.53,548.822L1317.44,548.895L1317.36,548.968L1317.28,549.041L1317.2,549.115L1317.12,549.189L1317.04,549.264L1316.96,549.34L1316.88,549.415L1316.8,549.492L1316.72,549.568L1316.64,549.645L1316.56,549.723L1316.48,549.801L1316.41,549.88L1316.33,549.959L1316.25,550.038L1316.18,550.118L1316.1,550.199L1316.03,550.28L1315.95,550.361L1315.88,550.443L1315.81,550.525L1315.73,550.607L1315.66,550.691L1315.59,550.774L1315.52,550.858L1315.45,550.942L1315.38,551.027L1315.31,551.112L1315.24,551.198L1315.17,551.284L1315.1,551.371L1315.03,551.457L1314.96,551.545L1314.9,551.632L1314.83,551.721L1314.77,551.809L1314.7,551.898L1314.63,551.987L1314.57,552.077L1314.51,552.167L1314.44,552.258L1314.38,552.349L1314.32,552.44L1314.26,552.532L1314.2,552.624L1314.14,552.716L1314.08,552.809L1314.02,552.902L1313.96,552.996L1313.9,553.09L1313.84,553.184L1313.78,553.279L1313.73,553.374L1313.67,553.469L1313.62,553.565L1313.56,553.661L1313.51,553.758L1313.45,553.855L1313.4,553.952L1313.35,554.049L1313.3,554.147L1313.24,554.245L1313.19,554.344L1313.14,554.443L1313.09,554.542L1313.04,554.642L1313,554.742L1312.95,554.842L1312.9,554.943L1312.85,555.044L1312.81,555.145L1312.76,555.246L1312.72,555.348L1312.67,555.45L1312.63,555.553L1312.59,555.656L1312.54,555.759L1312.5,555.862L1312.46,555.966L1312.42,556.07L1312.38,556.175L1312.34,556.279L1312.3,556.384L1312.26,556.489L1312.22,556.595L1312.19,556.701L1312.15,556.807L1312.12,556.913L1312.08,557.02L1312.05,557.127L1312.01,557.234L1311.98,557.342L1311.95,557.45L1311.91,557.558L1311.88,557.666L1311.85,557.775L1311.82,557.884L1311.79,557.993L1311.77,558.103L1311.74,558.213L1311.71,558.323L1311.68,558.433L1311.66,558.543L1311.63,558.654L1311.61,558.765L1311.58,558.877L1311.56,558.988L1311.54,559.1L1311.52,559.212L1311.5,559.324L1311.48,559.437L1311.45,559.55L1311.44,559.663L1311.42,559.776L1311.4,559.89L1311.38,560.003L1311.37,560.117L1311.35,560.232L1311.34,560.346L1311.32,560.461L1311.31,560.576L1311.3,560.691L1311.28,560.807L1311.27,560.922L1311.26,561.038L1311.25,561.154L1311.24,561.271L1311.23,561.387L1311.23,561.504L1311.22,561.621L1311.21,561.738L1311.21,561.856L1311.2,561.973L1311.2,562.091L1311.19,562.209L1311.19,562.328L1311.19,562.446L1311.19,562.565L1311.19,562.684L1311.19,562.803L1311.19,562.921L1311.19,563.04L1311.19,563.158L1311.2,563.276L1311.2,563.394L1311.21,563.512L1311.21,563.629L1311.22,563.746L1311.23,563.863L1311.23,563.98L1311.24,564.097L1311.25,564.213L1311.26,564.329L1311.27,564.445L1311.28,564.561L1311.3,564.676L1311.31,564.791L1311.32,564.906L1311.34,565.021L1311.35,565.136L1311.37,565.25L1311.38,565.364L1311.4,565.478L1311.42,565.591L1311.44,565.705L1311.45,565.818L1311.48,565.93L1311.5,566.043L1311.52,566.155L1311.54,566.267L1311.56,566.379L1311.58,566.491L1311.61,566.602L1311.63,566.713L1311.66,566.824L1311.68,566.935L1311.71,567.045L1311.74,567.155L1311.77,567.265L1311.79,567.374L1311.82,567.483L1311.85,567.592L1311.88,567.701L1311.91,567.809L1311.95,567.917L1311.98,568.025L1312.01,568.133L1312.05,568.24L1312.08,568.347L1312.12,568.454L1312.15,568.56L1312.19,568.666L1312.22,568.772L1312.26,568.878L1312.3,568.983L1312.34,569.088L1312.38,569.193L1312.42,569.297L1312.46,569.401L1312.5,569.505L1312.54,569.608L1312.59,569.712L1312.63,569.814L1312.67,569.917L1312.72,570.019L1312.76,570.121L1312.81,570.223L1312.85,570.324L1312.9,570.425L1312.95,570.525L1313,570.626L1313.04,570.726L1313.09,570.825L1313.14,570.924L1313.19,571.023L1313.24,571.122L1313.3,571.22L1313.35,571.318L1313.4,571.416L1313.45,571.513L1313.51,571.61L1313.56,571.706L1313.62,571.802L1313.67,571.898L1313.73,571.994L1313.79,572.089L1313.84,572.183L1313.9,572.278L1313.96,572.372L1314.02,572.465L1314.08,572.558L1314.14,572.651L1314.2,572.744L1314.26,572.836L1314.32,572.927L1314.38,573.019L1314.44,573.11L1314.51,573.2L1314.57,573.29L1314.63,573.38L1314.7,573.469L1314.77,573.558L1314.83,573.647L1314.9,573.735L1314.96,573.823L1315.03,573.91L1315.1,573.997L1315.17,574.083L1315.24,574.169L1315.31,574.255L1315.38,574.34L1315.45,574.425L1315.52,574.509L1315.59,574.593L1315.66,574.677L1315.73,574.76L1315.81,574.843L1315.88,574.925L1315.95,575.006L1316.03,575.088L1316.1,575.169L1316.18,575.249L1316.25,575.329L1316.33,575.408L1316.41,575.488L1316.48,575.566L1316.56,575.644L1316.64,575.722L1316.72,575.799L1316.8,575.876L1316.88,575.952L1316.96,576.028L1317.04,576.103L1317.12,576.178L1317.2,576.252L1317.28,576.326L1317.36,576.4L1317.44,576.472L1317.53,576.545L1317.61,576.617L1317.7,576.688L1317.78,576.759L1317.87,576.83L1317.95,576.899L1318.04,576.969L1318.12,577.038L1318.21,577.106L1318.3,577.174L1318.38,577.241L1318.47,577.308L1318.56,577.375L1318.65,577.44L1318.74,577.506L1318.83,577.57L1318.91,577.635L1319.01,577.698L1319.1,577.762L1319.19,577.824L1319.28,577.886L1319.37,577.948L1319.46,578.009L1319.55,578.069L1319.65,578.129L1319.74,578.189L1319.83,578.248L1319.93,578.306L1320.02,578.364L1320.12,578.421L1320.21,578.477L1320.31,578.533L1320.4,578.589L1320.5,578.644L1320.6,578.698L1320.69,578.752L1320.79,578.805L1320.89,578.858L1320.99,578.91L1321.08,578.961L1321.18,579.012L1321.28,579.063L1321.38,579.112L1321.48,579.161L1321.58,579.21L1321.68,579.258L1321.78,579.305L1321.88,579.352L1321.98,579.398L1322.08,579.444L1322.19,579.489L1322.29,579.533L1322.39,579.577L1322.49,579.62L1322.6,579.663L1322.7,579.705L1322.8,579.746L1322.91,579.787L1323.01,579.827L1323.12,579.866L1323.22,579.905L1323.33,579.943L1323.43,579.981L1323.54,580.018L1323.64,580.054L1323.75,580.09L1323.86,580.125L1323.96,580.159L1324.07,580.193L1324.18,580.226L1324.29,580.259L1324.4,580.29L1324.5,580.322L1324.61,580.352L1324.72,580.382L1324.83,580.411L1324.94,580.44L1325.05,580.468L1325.16,580.495L1325.27,580.521L1325.38,580.547L1325.49,580.573L1325.6,580.597L1325.71,580.621L1325.83,580.644L1325.94,580.667L1326.05,580.689L1326.16,580.71L1326.28,580.73L1326.39,580.75L1326.5,580.769L1326.61,580.788L1326.73,580.805L1326.84,580.823L1326.95,580.839L1327.07,580.855L1327.18,580.869L1327.3,580.884L1327.41,580.897L1327.53,580.91L1327.64,580.922L1327.76,580.934L1327.88,580.944L1327.99,580.954L1328.11,580.963L1328.23,580.972L1328.34,580.98L1328.46,580.987L1328.58,580.993L1328.69,580.999L1328.81,581.004L1328.93,581.008L1329.05,581.011L1329.16,581.014L1329.28,581.016L1329.4,581.017L1329.52,581.017L1329.64,581.017L1329.76,581.016L1329.88,581.014L1330,581.011L1330.11,581.008L1330.23,581.004L1330.35,580.999L1330.47,580.993L1330.58,580.987L1330.7,580.98L1330.82,580.972L1330.93,580.963L1331.05,580.954L1331.17,580.944L1331.28,580.934L1331.4,580.922L1331.51,580.91L1331.63,580.897L1331.74,580.884L1331.86,580.869L1331.97,580.855L1332.09,580.839L1332.2,580.823L1332.32,580.805L1332.43,580.788L1332.54,580.769L1332.66,580.75L1332.77,580.73L1332.88,580.71L1332.99,580.689L1333.11,580.667L1333.22,580.644L1333.33,580.621L1333.44,580.597L1333.55,580.573L1333.66,580.547L1333.77,580.521L1333.88,580.495L1333.99,580.468L1334.1,580.44L1334.21,580.411L1334.32,580.382L1334.43,580.352L1334.54,580.322L1334.65,580.29L1334.76,580.259L1334.86,580.226L1334.97,580.193L1335.08,580.159L1335.18,580.125L1335.29,580.09L1335.4,580.054L1335.5,580.018L1335.61,579.981L1335.72,579.943L1335.82,579.905L1335.93,579.866L1336.03,579.827L1336.13,579.787L1336.24,579.746L1336.34,579.705L1336.45,579.663L1336.55,579.62L1336.65,579.577L1336.76,579.533L1336.86,579.489L1336.96,579.444L1337.06,579.398L1337.16,579.352L1337.26,579.305L1337.36,579.258L1337.46,579.21L1337.56,579.161L1337.66,579.112L1337.76,579.063L1337.86,579.012L1337.96,578.961L1338.06,578.91L1338.16,578.858L1338.25,578.805L1338.35,578.752L1338.45,578.698L1338.54,578.644L1338.64,578.589L1338.74,578.533L1338.83,578.477L1338.93,578.421L1339.02,578.364L1339.12,578.306L1339.21,578.248L1339.3,578.189L1339.4,578.129L1339.49,578.069L1339.58,578.009L1339.67,577.948L1339.77,577.886L1339.86,577.824L1339.95,577.762L1340.04,577.698L1340.13,577.635L1340.22,577.57L1340.31,577.506L1340.4,577.44L1340.49,577.375L1340.57,577.308L1340.66,577.241L1340.75,577.174L1340.84,577.106L1340.92,577.038L1341.01,576.969L1341.09,576.899L1341.18,576.83L1341.26,576.759L1341.35,576.688L1341.43,576.617L1341.52,576.545L1341.6,576.472L1341.68,576.4L1341.76,576.326L1341.84,576.252L1341.93,576.178L1342.01,576.103L1342.09,576.028L1342.17,575.952L1342.25,575.876L1342.33,575.799L1342.4,575.722L1342.48,575.644L1342.56,575.566L1342.64,575.488L1342.71,575.408L1342.79,575.329L1342.87,575.249L1342.94,575.169L1343.02,575.088L1343.09,575.006L1343.16,574.925L1343.24,574.843L1343.31,574.76L1343.38,574.677L1343.45,574.593L1343.53,574.509L1343.6,574.425L1343.67,574.34L1343.74,574.255L1343.81,574.169L1343.88,574.083L1343.94,573.997L1344.01,573.91L1344.08,573.823L1344.15,573.735L1344.21,573.647L1344.28,573.558L1344.34,573.469L1344.41,573.38L1344.47,573.29L1344.54,573.2L1344.6,573.11L1344.66,573.019L1344.72,572.927L1344.79,572.836L1344.85,572.744L1344.91,572.651L1344.97,572.558L1345.03,572.465L1345.09,572.372L1345.14,572.278L1345.2,572.183L1345.26,572.089L1345.32,571.993L1345.37,571.898L1345.43,571.802L1345.48,571.706L1345.54,571.61L1345.59,571.513L1345.64,571.416L1345.7,571.318L1345.75,571.22L1345.8,571.122L1345.85,571.023L1345.9,570.924L1345.95,570.825L1346,570.726L1346.05,570.626L1346.1,570.525L1346.14,570.425L1346.19,570.324L1346.24,570.223L1346.28,570.121L1346.33,570.019L1346.37,569.917L1346.41,569.814L1346.46,569.712L1346.5,569.608L1346.54,569.505L1346.58,569.401L1346.62,569.297L1346.66,569.193L1346.7,569.088L1346.74,568.983L1346.78,568.878L1346.82,568.772L1346.86,568.667L1346.89,568.56L1346.93,568.454L1346.96,568.347L1347,568.24L1347.03,568.133L1347.06,568.025L1347.1,567.917L1347.13,567.809L1347.16,567.701L1347.19,567.592L1347.22,567.483L1347.25,567.374L1347.28,567.265L1347.31,567.155L1347.33,567.045L1347.36,566.935L1347.38,566.824L1347.41,566.713L1347.43,566.602L1347.46,566.491L1347.48,566.379L1347.51,566.267L1347.53,566.155L1347.55,566.043L1347.57,565.931L1347.59,565.818L1347.61,565.705L1347.63,565.591L1347.64,565.478L1347.66,565.364L1347.68,565.25L1347.69,565.136L1347.71,565.021L1347.72,564.906L1347.74,564.791L1347.75,564.676L1347.76,564.561L1347.77,564.445L1347.78,564.329L1347.79,564.213L1347.8,564.097L1347.81,563.98L1347.82,563.863L1347.83,563.746L1347.83,563.629L1347.84,563.512L1347.84,563.394L1347.85,563.276L1347.85,563.158L1347.85,563.04L1347.85,562.921L1347.85,562.803L1347.86,562.684L1347.85,562.565L1347.85,562.446L1347.85,562.328L1347.85,562.209L1347.85,562.091L1347.84,561.973L1347.84,561.856L1347.83,561.738L1347.83,561.621L1347.82,561.504L1347.81,561.387L1347.8,561.271L1347.79,561.154L1347.78,561.038L1347.77,560.922L1347.76,560.807L1347.75,560.691L1347.74,560.576L1347.72,560.461L1347.71,560.346L1347.69,560.232L1347.68,560.117L1347.66,560.003L1347.64,559.89L1347.63,559.776L1347.61,559.663L1347.59,559.55L1347.57,559.437L1347.55,559.324L1347.53,559.212L1347.51,559.1L1347.48,558.988L1347.46,558.877L1347.43,558.765L1347.41,558.654L1347.38,558.543L1347.36,558.433L1347.33,558.322L1347.31,558.213L1347.28,558.103L1347.25,557.993L1347.22,557.884L1347.19,557.775L1347.16,557.666L1347.13,557.558L1347.1,557.45L1347.06,557.342L1347.03,557.234L1347,557.127L1346.96,557.02L1346.93,556.913L1346.89,556.807L1346.86,556.701L1346.82,556.595L1346.78,556.49L1346.74,556.384L1346.7,556.279L1346.66,556.175L1346.62,556.07L1346.58,555.966L1346.54,555.862L1346.5,555.759L1346.46,555.656L1346.41,555.553L1346.37,555.45L1346.33,555.348L1346.28,555.246L1346.24,555.145L1346.19,555.044L1346.14,554.943L1346.1,554.842L1346.05,554.742L1346,554.642L1345.95,554.542L1345.9,554.443L1345.85,554.344L1345.8,554.245L1345.75,554.147L1345.7,554.049L1345.64,553.952L1345.59,553.855L1345.54,553.758L1345.48,553.661L1345.43,553.565L1345.37,553.469L1345.32,553.374L1345.26,553.279L1345.2,553.184L1345.14,553.09L1345.09,552.996L1345.03,552.902L1344.97,552.809L1344.91,552.716L1344.85,552.624L1344.79,552.532L1344.72,552.44L1344.66,552.349L1344.6,552.258L1344.54,552.167L1344.47,552.077L1344.41,551.987L1344.34,551.898L1344.28,551.809L1344.21,551.721L1344.15,551.632L1344.08,551.545L1344.01,551.457L1343.94,551.371L1343.88,551.284L1343.81,551.198L1343.74,551.112L1343.67,551.027L1343.6,550.942L1343.53,550.858L1343.45,550.774L1343.38,550.691L1343.31,550.607L1343.24,550.525L1343.16,550.443L1343.09,550.361L1343.02,550.28L1342.94,550.199L1342.87,550.118L1342.79,550.038L1342.71,549.959L1342.64,549.88L1342.56,549.801L1342.48,549.723L1342.4,549.645L1342.33,549.568L1342.25,549.492L1342.17,549.415L1342.09,549.34L1342.01,549.264L1341.93,549.189L1341.84,549.115L1341.76,549.041L1341.68,548.968L1341.6,548.895L1341.52,548.822L1341.43,548.751L1341.35,548.679L1341.26,548.608L1341.18,548.538L1341.09,548.468L1341.01,548.399L1340.92,548.33L1340.84,548.261L1340.75,548.193L1340.66,548.126L1340.57,548.059L1340.49,547.993L1340.4,547.927L1340.31,547.862L1340.22,547.797L1340.13,547.733L1340.04,547.669L1339.95,547.606L1339.86,547.543L1339.77,547.481L1339.67,547.419L1339.58,547.358L1339.49,547.298L1339.4,547.238L1339.3,547.179L1339.21,547.12L1339.12,547.062L1339.02,547.004L1338.93,546.947L1338.83,546.89L1338.74,546.834L1338.64,546.778L1338.54,546.724L1338.45,546.669L1338.35,546.615L1338.25,546.562L1338.16,546.51L1338.06,546.457L1337.96,546.406L1337.86,546.355L1337.76,546.305L1337.66,546.255L1337.56,546.206L1337.46,546.157L1337.36,546.109L1337.26,546.062L1337.16,546.015L1337.06,545.969L1336.96,545.923L1336.86,545.879L1336.76,545.834L1336.65,545.79L1336.55,545.747L1336.45,545.705L1336.34,545.663L1336.24,545.621L1336.13,545.581L1336.03,545.541L1335.93,545.501L1335.82,545.462L1335.72,545.424L1335.61,545.387L1335.5,545.35L1335.4,545.313L1335.29,545.278L1335.18,545.243L1335.08,545.208L1334.97,545.174L1334.86,545.141L1334.76,545.109L1334.65,545.077L1334.54,545.046L1334.43,545.015L1334.32,544.985L1334.21,544.956L1334.1,544.928L1333.99,544.9L1333.88,544.872L1333.77,544.846L1333.66,544.82L1333.55,544.795L1333.44,544.77L1333.33,544.746L1333.22,544.723L1333.11,544.701L1332.99,544.679L1332.88,544.657L1332.77,544.637L1332.66,544.617L1332.54,544.598L1332.43,544.58L1332.32,544.562L1332.2,544.545L1332.09,544.529L1331.97,544.513L1331.86,544.498L1331.74,544.484L1331.63,544.47L1331.51,544.457L1331.4,544.445L1331.28,544.434L1331.17,544.423L1331.05,544.413L1330.93,544.404L1330.82,544.395L1330.7,544.388L1330.58,544.381L1330.47,544.374L1330.35,544.369L1330.23,544.364L1330.11,544.36L1330,544.356L1329.88,544.354L1329.76,544.352L1329.64,544.351L1329.52,544.35L1329.4,544.351Z" style="fill:rgb(226,226,226);"/>
    </g>
</svg>
