<svg id="Folder" xmlns="http://www.w3.org/2000/svg" viewBox="0 0 29.39 26"><title>folderIcon</title><path d="M.25,24.87V5.15a.29.29,0,0,0,0-.09A3,3,0,0,1,.54,4,3.32,3.32,0,0,1,3.69,2c1.85,0,3.7,0,5.55,0A3.26,3.26,0,0,1,11,2.48a3.32,3.32,0,0,1,1.59,2.25c.05.22.06.44.09.67H26.1a3.62,3.62,0,0,1,.46,0,3.21,3.21,0,0,1,1.88.79,3.33,3.33,0,0,1,1.2,2.64V24.54a3.49,3.49,0,0,1-.06.65A3.37,3.37,0,0,1,26.29,28H3.66A3.36,3.36,0,0,1,3,27.94,3.37,3.37,0,0,1,.35,25.4C.31,25.22.28,25,.25,24.87Zm14.7.87H26.22a1.24,1.24,0,0,0,.27,0,1.12,1.12,0,0,0,.89-1.14V8.83a1.94,1.94,0,0,0,0-.24,1.13,1.13,0,0,0-1.15-.93H3.67A1.13,1.13,0,0,0,2.51,8.82V24.58a1.13,1.13,0,0,0,1.16,1.16Z" transform="translate(-0.25 -2)" style="fill:#fff"/></svg>