<svg id="info" xmlns="http://www.w3.org/2000/svg" viewBox="0 0 27.92 27.92"><title>infoIcon</title><path d="M15,1a14,14,0,1,1-14,13.93A14,14,0,0,1,15,1Zm3.14,20.67-.32.11a3,3,0,0,1-1.57.14.71.71,0,0,1-.65-.59,1.41,1.41,0,0,1-.05-.35,5.09,5.09,0,0,1,.2-1.4c.27-1,.55-2,.85-3A7.92,7.92,0,0,0,17,14.36a2.09,2.09,0,0,0-1.34-2,4,4,0,0,0-2.33-.12,14.84,14.84,0,0,0-2.19.74.13.13,0,0,0-.07.09l-.21.83V14L11,14a3.31,3.31,0,0,1,1.65-.24.74.74,0,0,1,.71.57,1.26,1.26,0,0,1,.05.33A4,4,0,0,1,13.21,16c-.24.91-.5,1.82-.75,2.73A10.11,10.11,0,0,0,12,21a2.39,2.39,0,0,0,.14,1.06,2.14,2.14,0,0,0,1.4,1.27,4.16,4.16,0,0,0,2.37,0c.68-.19,1.34-.47,2-.72a.11.11,0,0,0,.06-.07C18,22.28,18.11,22,18.18,21.67Zm-4-13.31a1.74,1.74,0,0,0,.3,1,2.23,2.23,0,0,0,3.44.29,1.89,1.89,0,0,0-.11-2.75,2.18,2.18,0,0,0-2-.52A2,2,0,0,0,14.14,8.36Z" transform="translate(-1.08 -1)" style="fill:#fff"/></svg>