<svg id="Plug" xmlns="http://www.w3.org/2000/svg" viewBox="0 0 27.92 27.92"><title>plugIcon</title><path d="M15,1A14,14,0,1,0,29,15,14,14,0,0,0,15,1Zm-.38,7.65,2.47-2.46A1.31,1.31,0,1,1,19,8l-2.69,2.69L14.45,8.9Zm6.21,8.66c-.22.24-.48.45-.69.7a.8.8,0,0,1-1.14.2L16.86,20.4a2.62,2.62,0,0,1-3.82.13.65.65,0,0,0-.9-.06.76.76,0,0,1-1,.06L10,21.66c-.38.38-.76.75-1.16,1.16L7,21l1.13-1.12c.37-.38.75-.76,1.15-1.15a.81.81,0,0,1,.08-1.05.62.62,0,0,0,0-.83,2.63,2.63,0,0,1,.19-3.94l2.1-2.1a.79.79,0,0,1,.22-1.16c.24-.2.45-.45.67-.66a.66.66,0,0,1,1,0c2.45,2.45,4.91,4.9,7.35,7.36A.64.64,0,0,1,20.87,17.31Zm.07-1.93-1.82-1.81a.91.91,0,0,1,.07-.14c.9-.9,1.79-1.81,2.7-2.69a1.3,1.3,0,0,1,1.82,0,1.28,1.28,0,0,1,.06,1.78C22.85,13.49,21.9,14.41,20.94,15.38Z" transform="translate(-1.08 -1)" style="fill:#fff"/></svg>